<svg xmlns="http://www.w3.org/2000/svg" xmlns:xlink="http://www.w3.org/1999/xlink" width="517" height="181" viewBox="0 0 517 181">
  <defs>
    <clipPath id="clip-path">
      <rect id="Rectangle_607" data-name="Rectangle 607" width="517" height="181" transform="translate(517.157 181.12) rotate(180)" fill="#d9d9d9"/>
    </clipPath>
  </defs>
  <g id="Rectangle_607-2" data-name="Rectangle 607" transform="translate(-0.157 -0.12)" clip-path="url(#clip-path)">
    <g id="Group_1000001426" data-name="Group 1000001426" transform="translate(-133.443 -9.656)">
      <g id="Group" transform="translate(336.489 22.311)">
        <g id="Group-2" data-name="Group">
          <path id="Vector" d="M.44,135.257c2.968,4.958,5.937,9.857,8.954,14.757C21.365,169.32,34.358,188.1,50.562,202.451c16.643,14.815,36.691,23.39,57.568,21.99a74.468,74.468,0,0,0,31.387-9.507c9.83-5.6,18.443-13.707,26.618-22.165,8.224-8.458,16.107-17.44,25.061-24.789a83.092,83.092,0,0,1,29.392-15.632c21.509-6.358,43.991-4.725,65.889-4.258,20.876.467,41.7-.233,62-7,36.643-12.191,68.225-39.022,98.833-65.036C478.4,49.573,510.082,22.1,546.968,8.568c1.9-.642,2.53-4.141.584-5.308-1.654-.992-3.26-1.925-4.915-2.916-2.774-1.692-5.256,3.325-2.433,5.016,1.655.992,3.26,1.925,4.915,2.916.195-1.75.389-3.558.584-5.308-4.428,1.575-8.759,3.383-13.042,5.366-35.378,16.449-65.84,44.213-96.644,70.169-30.268,25.489-62.191,50.8-99.028,59.9-21.217,5.25-42.92,3.966-64.429,3.5-21.071-.467-42.872-.35-62.969,8.283-9.878,4.258-18.784,10.557-27.056,18.257-8.37,7.816-16.059,16.624-24.234,24.731-8.565,8.4-17.762,15.807-28.273,20.182a68.791,68.791,0,0,1-31.971,5.133c-42.58-3.5-70.56-48-93.383-86.151-1.849-3.033-6.034-.117-4.234,2.916Z" transform="translate(548.737 224.589) rotate(180)" fill="#fff"/>
        </g>
      </g>
      <g id="Group-3" data-name="Group">
        <g id="Group-4" data-name="Group">
          <path id="Vector-2" data-name="Vector" d="M.1,196.266a186.765,186.765,0,0,0,14.5,18.2c42.482,46.721,103.408,63.169,158.4,42.463,28.516-10.732,52.312-30.739,73.286-55.878,21.849-26.189,41.7-55.12,68.955-73.668C374.6,87.018,445.553,94.542,510.955,98.8c65.694,4.316,131-.467,195.234-17.382,63.018-16.565,124.04-43.8,180.781-80.726.341-.233.049-.875-.292-.642-6.959,4.55-13.966,8.924-21.071,13.182A614,614,0,0,1,682.733,86.376a579.07,579.07,0,0,1-96.79,12.949c-33.82,1.575-67.446-.758-101.218-2.975-61.266-3.966-128.469-4.491-181.17,38.963-24.38,20.123-42.774,48.471-64.088,72.735-22.433,25.548-49.052,44.038-79.368,52.32C101.461,276.351,39.173,250.8.486,195.741c-.243-.35-.681.175-.389.525Z" transform="translate(887.121 265.737) rotate(180)" fill="#fff" stroke="#fff" stroke-width="1"/>
        </g>
      </g>
    </g>
  </g>
</svg>
